<?xml version="1.0" encoding="utf-8"?>
<!-- Generator: Adobe Illustrator 26.0.2, SVG Export Plug-In . SVG Version: 6.00 Build 0)  -->
<svg version="1.1" id="Capa_1" xmlns="http://www.w3.org/2000/svg" xmlns:xlink="http://www.w3.org/1999/xlink" x="0px" y="0px"
	 viewBox="0 0 840.82 205.26" style="enable-background:new 0 0 840.82 205.26;" xml:space="preserve">
<style type="text/css">
	.st0{fill:#FFFFFF;}
</style>
<g>
	<path class="st0" d="M137.82,61.97c-5.39,0-10.79,0.21-16.16-0.14c-1.43-0.09-3.76-1.74-3.97-2.97
		C114.6,40.72,102.61,34.7,86.8,32.72c-9.14-1.15-18.28-0.63-26.82,3.56C50.34,41,45.36,50.26,48.29,60.54
		c1.07,3.77,4.49,8.12,7.98,9.7c8.84,4.02,18.24,6.9,27.57,9.74c15.72,4.78,31.97,8.11,47.25,13.99
		c21.13,8.15,33.62,24.04,34.05,47.37c0.44,24.23-10.45,42.28-32,53.59c-18.59,9.76-38.68,11.13-59.12,9.95
		c-20.25-1.17-38.83-7.03-54.25-20.77C6.99,172.72,1.62,157.81,0.04,141.2c-0.29-3.1,0.85-4.48,4.11-4.45
		c10.78,0.1,21.56,0.12,32.34-0.01c3.24-0.04,4.28,1.63,4.63,4.39c2.16,16.68,12.22,26.37,28,30.04
		c14.07,3.27,28.25,3.05,41.72-3.03c8.18-3.69,13.18-9.99,13.61-19.3c0.43-9.29-4.3-16.09-12.18-19.55
		c-10.09-4.42-20.8-7.45-31.32-10.84c-14.87-4.79-30.15-8.51-44.62-14.3C23.41,99.01,13.11,89.74,9.46,75.56
		c-7.23-28.1,2.11-50.22,25.29-63.73C53.32,1.01,73.53-1.73,94.77,0.97c15.48,1.97,30.07,5.99,42.6,15.67
		c13.23,10.21,19.63,24,20.83,40.47c0.27,3.66-1.1,5.03-4.7,4.92c-5.22-0.16-10.45-0.04-15.68-0.04
		C137.82,61.98,137.82,61.97,137.82,61.97z"/>
	<path class="st0" d="M227.05,130.07c0,21.54-0.1,43.08,0.08,64.62c0.04,4.59-1.24,6.41-6.07,6.24c-8.81-0.32-17.63-0.2-26.45-0.05
		c-3.57,0.06-4.89-1.22-4.88-4.84c0.08-44.06,0.08-88.12,0.01-132.18c-0.01-3.7,1.53-4.8,5-4.75c8.82,0.14,17.64,0.24,26.45-0.04
		c4.49-0.14,5.98,1.41,5.94,5.89C226.96,86.66,227.05,108.36,227.05,130.07z"/>
	<path class="st0" d="M208.07,35.85c-4.73,0-9.45-0.08-14.18,0.03c-2.87,0.06-4.16-1.08-4.12-4.02c0.08-7.49,0.1-14.99-0.01-22.48
		c-0.05-3.25,1.54-4.24,4.52-4.22c9.45,0.07,18.91,0.09,28.36,0.01c3.11-0.03,4.45,1.24,4.42,4.35c-0.07,7.33-0.08,14.66,0.01,21.99
		c0.04,3.06-1.13,4.47-4.32,4.38C217.85,35.75,212.96,35.85,208.07,35.85z"/>
	<path class="st0" d="M657.31,158.34c17.15,0,34.31,0.01,51.46,0c2.86,0,5.51-0.28,5.56,4.08c0.04,4.42-2.43,4.55-5.67,4.54
		c-34.31-0.04-68.61-0.01-102.92-0.05c-2.48,0-5.44,0.71-5.79-3.37c-0.32-3.77,1-5.29,4.93-5.25c14.37,0.15,28.75,0.05,43.13,0.05
		C651.1,158.34,654.21,158.34,657.31,158.34z"/>
	<path class="st0" d="M656.81,192.37c17.28,0,34.57,0,51.85,0c2.83,0,5.55-0.28,5.64,4.04c0.1,4.56-2.72,4.42-5.78,4.42
		c-34.41-0.01-68.81-0.01-103.22,0.01c-2.99,0-5.48-0.09-5.41-4.28c0.07-4.16,2.59-4.21,5.56-4.2
		C622.56,192.38,639.69,192.37,656.81,192.37z"/>
	<path class="st0" d="M783.74,158.35c17.12,0,34.25,0.02,51.37-0.02c3-0.01,5.58,0.07,5.5,4.22c-0.06,3.04-1.08,4.46-4.3,4.41
		c-8.48-0.11-16.96-0.03-25.44-0.03c-26.09,0-52.19,0.01-78.28-0.02c-2.49,0-5.39,0.7-5.65-3.45c-0.23-3.77,1.01-5.22,4.94-5.19
		C749.16,158.43,766.45,158.35,783.74,158.35z"/>
	<path class="st0" d="M783.78,192.37c17.3,0,34.6,0.08,51.9-0.06c4-0.03,5.5,1.71,4.73,5.29c-0.26,1.2-1.71,2.33-2.88,3.09
		c-0.7,0.45-1.91,0.14-2.89,0.14c-33.95,0-67.89,0.02-101.84-0.04c-2.2,0-5.23,1.07-5.76-2.73c-0.51-3.69,0.39-5.79,4.83-5.75
		C749.18,192.48,766.48,192.37,783.78,192.37z"/>
	<path class="st0" d="M657.19,183.46c-17.3,0-34.6-0.01-51.9,0.01c-3.01,0-5.99-0.17-5.18-4.29c0.26-1.31,1.92-2.45,3.15-3.4
		c0.52-0.4,1.58-0.14,2.4-0.14c34.27-0.01,68.55-0.05,102.82,0.09c1.88,0.01,4.78,1.04,5.43,2.42c1.63,3.46-0.21,5.27-4.81,5.28
		C691.79,183.48,674.49,183.46,657.19,183.46z"/>
	<path class="st0" d="M783.6,183.46c-17.14,0-34.29,0-51.43,0.01c-2.72,0-5.36,0.14-5.23-3.89c0.09-2.64,1.08-3.94,3.77-3.93
		c4.08,0.03,8.16-0.02,12.24-0.02c30.53,0,61.06-0.04,91.59,0.1c1.94,0.01,4.84,0.83,5.63,2.22c1.8,3.18-0.3,5.48-4.66,5.49
		C818.22,183.48,800.91,183.45,783.6,183.46z"/>
	<path class="st0" d="M291.58,141.42c31.68,0,63,0,94.35,0c-0.62,7.67-1.1,8.15-8.04,8.16c-26.08,0.01-52.16,0.01-78.24,0
		C292.73,149.57,292.41,149.25,291.58,141.42z"/>
	<path class="st0" d="M380.49,159.02c-1.13,7.53-1.5,7.91-8.05,7.91c-22.37,0.01-44.73,0.01-67.1,0c-7,0-7.05-0.06-8.39-7.91
		C324.76,159.02,352.46,159.02,380.49,159.02z"/>
	<path class="st0" d="M489.6,64.14c-13.69,0-27.39,0.09-41.08-0.1c-1.84-0.03-5.22-1.46-5.23-2.24c-0.01-3.37,1.75-5.55,5.8-5.51
		c14.67,0.15,29.35,0.05,44.02,0.05c12.23,0,24.45-0.03,36.68,0.04c1.57,0.01,3.7,0.02,4.57,0.96c1.18,1.28,1.68,3.43,1.82,5.26
		c0.03,0.41-2.61,1.47-4.03,1.48C517.97,64.18,503.79,64.14,489.6,64.14z"/>
	<path class="st0" d="M530.16,47.03c-27.09,0-53.88,0-80.67,0c0.17-6.89,1.31-8.08,7.58-8.08c21.85-0.01,43.7-0.01,65.55,0
		C528.79,38.96,529.62,39.81,530.16,47.03z"/>
	<path class="st0" d="M524.24,30c-23.12,0-45.83,0-68.57,0c0.86-7.82,1.6-8.53,8.89-8.53c16.8-0.01,33.6-0.01,50.4,0
		C522.28,21.47,522.7,21.83,524.24,30z"/>
	<path class="st0" d="M302.16,175.92c2.4-0.12,4.16-0.29,5.91-0.29c20.37-0.01,40.74-0.05,61.11,0.08c2.03,0.01,5.61-1.46,5.52,2.56
		c-0.07,3.11-1.69,5.27-5.6,5.24c-20.21-0.14-40.41-0.15-60.62,0C303.38,183.55,302.84,180.38,302.16,175.92z"/>
	<path class="st0" d="M369.21,192.93c-0.34,7.1-1.1,7.89-7.38,7.89c-15.35,0.01-30.71,0.01-46.06,0c-1.47,0-3.49,0.46-4.28-0.3
		c-1.6-1.55-2.66-3.74-3.56-5.83c-0.11-0.24,2.15-2.19,3.33-2.2c18.62-0.13,37.24-0.08,55.86-0.05
		C367.73,192.45,368.34,192.72,369.21,192.93z"/>
	<path class="st0" d="M625.47,21.47c6.86,0,13.72,0.11,20.57-0.05c3.39-0.08,4.09,1.59,4.1,4.52c0.01,3-0.85,4.5-4.16,4.47
		c-13.88-0.11-27.76-0.1-41.64-0.01c-3.48,0.02-4.47-1.52-4.46-4.77c0.01-3.31,1.55-4.23,4.52-4.19
		C611.42,21.53,618.45,21.47,625.47,21.47z"/>
	<path class="st0" d="M372.94,30.1c1.14-8.56,1.18-8.62,8.68-8.63c12.39-0.02,24.77-0.02,37.16,0.01c1.88,0.01,3.75,0.27,5.58,0.41
		c0.02,7.38-0.94,8.48-7.18,8.49c-13.04,0.02-26.08,0.02-39.12-0.01C376.47,30.37,374.88,30.21,372.94,30.1z"/>
	<path class="st0" d="M305.71,30.39c-3.63,0-6.85,0-10.07,0c-11.11,0-22.21,0.01-33.32-0.01c-7.21-0.01-7.41-0.22-8.45-8.25
		c2.01-0.22,4.01-0.63,6.01-0.64c12.57-0.06,25.15-0.04,37.73-0.03C304.66,21.47,304.84,21.67,305.71,30.39z"/>
	<path class="st0" d="M751.97,21.47c6.67,0,13.35,0.08,20.02-0.03c3.31-0.05,5.1,0.78,5.05,4.65c-0.05,3.64-1.74,4.34-4.83,4.33
		c-13.51-0.07-27.02-0.08-40.53,0.01c-3.16,0.02-4.75-0.83-4.8-4.39c-0.06-3.84,1.71-4.68,5.06-4.61
		C738.62,21.57,745.29,21.46,751.97,21.47z"/>
	<path class="st0" d="M588.3,200.3c-2.02,0.21-3.58,0.5-5.13,0.5c-13.83,0.04-27.66,0.12-41.48-0.09c-1.93-0.03-4.56-1.08-5.61-2.56
		c-2.51-3.52-1.15-5.73,3.22-5.75c13.99-0.07,27.99,0.13,41.97-0.11C586.59,192.21,587.16,195.74,588.3,200.3z"/>
	<path class="st0" d="M391.75,200.51c0.92-7.3,1.74-8.12,7.78-8.13c13.03-0.03,26.06-0.02,39.1,0c1.59,0,3.18,0.17,4.71,0.26
		c0.78,6.34-0.68,8.17-6.39,8.18c-13.52,0.03-27.04,0.02-40.56,0C394.95,200.82,393.52,200.63,391.75,200.51z"/>
	<path class="st0" d="M625.09,149.56c-6.85,0-13.7-0.1-20.55,0.05c-3.31,0.07-4.7-1.09-4.66-4.53c0.04-3.35,1.67-4.13,4.59-4.12
		c13.86,0.05,27.73,0.07,41.59-0.01c2.93-0.02,4.1,1.1,4.07,4.04c-0.03,2.84-0.54,4.7-4,4.63
		C639.12,149.46,632.1,149.56,625.09,149.56z"/>
	<path class="st0" d="M549.64,166.93c-6.84,0-13.7,0.23-20.52-0.16c-1.78-0.1-4.07-1.77-5.03-3.37c-1.86-3.11-0.91-5.12,3.25-5.09
		c13.85,0.11,27.71-0.07,41.55,0.19c1.77,0.03,4.19,1.62,5.11,3.18c2.2,3.74,1.16,5.17-3.34,5.22
		C563.65,166.99,556.65,166.93,549.64,166.93z"/>
	<path class="st0" d="M625.5,89.98c6.85-0.01,13.71,0.1,20.56-0.05c3.41-0.08,4.09,1.63,4.07,4.55c-0.02,2.84-0.98,4.13-3.99,4.11
		c-14.03-0.09-28.06-0.08-42.09-0.01c-2.86,0.01-4.15-1-4.14-3.99c0.01-2.91,0.7-4.68,4.06-4.63
		C611.15,90.06,618.33,89.98,625.5,89.98z"/>
	<path class="st0" d="M625.02,47.42c-6.85,0-13.71-0.06-20.56,0.03c-2.98,0.04-4.52-0.93-4.56-4.2c-0.04-3.18,1.21-4.34,4.34-4.32
		c13.87,0.08,27.74,0.07,41.6,0c2.74-0.01,4.28,0.7,4.27,3.83c-0.01,3.22-1.05,4.8-4.54,4.71
		C638.72,47.31,631.87,47.42,625.02,47.42z"/>
	<path class="st0" d="M624.93,81.31c-6.85,0-13.7-0.05-20.54,0.02c-2.96,0.03-4.54-0.9-4.49-4.21c0.05-3.21,1.47-4.29,4.5-4.27
		c13.86,0.06,27.72,0.08,41.58-0.01c3.33-0.02,4.11,1.64,4.15,4.56c0.04,3.03-1.32,3.98-4.16,3.94
		C638.96,81.25,631.94,81.32,624.93,81.31z"/>
	<path class="st0" d="M625.19,132.37c-6.85,0-13.7-0.04-20.54,0.02c-2.75,0.02-4.8-0.37-4.73-3.91c0.06-3.12,1.37-4.39,4.44-4.38
		c13.86,0.05,27.72,0.06,41.57-0.01c3.31-0.02,4.13,1.66,4.17,4.58c0.04,3.21-1.74,3.75-4.37,3.73
		C638.89,132.33,632.04,132.37,625.19,132.37z"/>
	<path class="st0" d="M625.23,107.28c6.86,0,13.71,0.05,20.57-0.02c2.74-0.03,4.32,0.76,4.3,3.86c-0.02,2.91-0.8,4.63-4.14,4.61
		c-13.88-0.08-27.75-0.06-41.63-0.03c-3.08,0.01-4.36-1.39-4.41-4.48c-0.05-3.49,1.96-3.98,4.74-3.96
		C611.52,107.32,618.38,107.28,625.23,107.28z"/>
	<path class="st0" d="M258.66,38.95c3.17,0,5.41,0,7.65,0c12.7,0,25.39,0.09,38.09-0.06c3.2-0.04,4.75,1.19,5.52,4.16
		c0.74,2.87,0.14,4.38-3.1,4.37c-14-0.04-28-0.03-42-0.01C259.55,47.42,260.03,43.28,258.66,38.95z"/>
	<path class="st0" d="M455.44,158.67c0.13,6.82-1.1,8.24-6.92,8.25c-13.2,0.03-26.41,0.02-39.61,0c-1.43,0-2.86-0.2-4.28-0.3
		c0.42-7.18,1.48-8.26,8.02-8.27c12.55-0.02,25.1-0.02,37.66,0.01C452.03,158.36,453.76,158.57,455.44,158.67z"/>
	<path class="st0" d="M751.58,98.55c-6.84,0-13.67-0.09-20.51,0.04c-3.3,0.06-4.18-1.49-4.14-4.48c0.03-2.83,1.02-4.17,3.99-4.16
		c14,0.06,28,0.08,41.99-0.02c3.32-0.02,4.07,1.48,4.1,4.47c0.03,3.29-1.43,4.22-4.43,4.17C765.58,98.48,758.58,98.55,751.58,98.55z
		"/>
	<path class="st0" d="M751.95,115.71c-6.7,0-13.39-0.06-20.09,0.03c-3.09,0.04-4.91-0.76-4.95-4.36c-0.04-3.82,2.12-4.14,5.05-4.13
		c13.39,0.05,26.78,0.06,40.17,0c3.03-0.01,4.92,0.54,4.89,4.27c-0.03,3.76-2,4.25-4.99,4.22
		C765.34,115.66,758.64,115.71,751.95,115.71z"/>
	<path class="st0" d="M752.26,47.42c-6.85,0-13.69-0.08-20.54,0.04c-3.15,0.06-4.82-0.78-4.82-4.36c0.01-3.76,2.04-4.19,5.01-4.17
		c13.53,0.06,27.06,0.07,40.59,0c2.92-0.01,4.51,0.67,4.52,4.07c0,3.5-1.47,4.53-4.71,4.46C765.63,47.33,758.95,47.42,752.26,47.42z
		"/>
	<path class="st0" d="M751.44,81.31c-6.67,0-13.35-0.06-20.02,0.03c-2.97,0.04-4.52-0.86-4.5-4.16c0.02-3.14,1.23-4.36,4.35-4.34
		c13.67,0.07,27.34,0.08,41.02-0.01c3.19-0.02,4.75,0.92,4.73,4.45c-0.02,3.42-1.72,4.08-4.58,4.05
		C765.44,81.27,758.44,81.31,751.44,81.31z"/>
	<path class="st0" d="M752.1,132.37c-6.84,0-13.68-0.04-20.52,0.02c-2.83,0.03-4.68-0.58-4.65-4.02c0.03-3.2,1.46-4.3,4.47-4.29
		c13.68,0.05,27.36,0.05,41.04-0.01c2.9-0.01,4.53,0.75,4.57,4.11c0.03,3.29-1.37,4.26-4.39,4.21
		C765.79,132.29,758.94,132.36,752.1,132.37z"/>
	<path class="st0" d="M568.83,149.58c-4.12,0-7.82,0-11.52,0c-11.07,0-22.14,0.13-33.21-0.14c-1.81-0.04-4.35-1.37-5.23-2.87
		c-2.57-4.42-1.71-5.57,3.51-5.59c12.7-0.04,25.4-0.03,38.1-0.01C566.99,140.98,567.34,141.33,568.83,149.58z"/>
	<path class="st0" d="M419.2,39.76c-1.21,7.46-1.41,7.66-8.25,7.66c-12.54,0.01-25.09,0.09-37.63-0.11
		c-1.6-0.03-4.46-1.54-4.51-2.48c-0.14-2.67,0.51-5.81,4.34-5.82c14.82-0.03,29.65,0.02,44.47,0.07
		C418.06,39.09,418.49,39.45,419.2,39.76z"/>
	<path class="st0" d="M752.07,149.57c-6.86,0-13.71-0.1-20.57,0.04c-3.37,0.07-4.62-1.22-4.59-4.6c0.03-3.4,1.72-4.08,4.61-4.06
		c13.55,0.06,27.1,0.06,40.64,0.01c3.06-0.01,4.86,0.69,4.86,4.35c0,3.7-1.83,4.33-4.88,4.29
		C765.45,149.5,758.76,149.57,752.07,149.57z"/>
	<path class="st0" d="M461.49,141.25c-0.78,7.53-1.54,8.31-7.63,8.32c-12.57,0.02-25.13,0.02-37.7-0.01c-1.59,0-3.19-0.19-4.75-0.29
		c-0.05-6.83,1.26-8.29,7.33-8.3c12.57-0.03,25.13-0.02,37.7,0C458.01,140.98,459.59,141.14,461.49,141.25z"/>
	<path class="st0" d="M562.25,132.02c-1.76,0.12-3.46,0.34-5.18,0.34c-12.36,0.03-24.72,0.03-37.08,0.01
		c-6.46-0.01-6.58-0.14-7.72-7.76c1.87-0.18,3.71-0.49,5.56-0.5c12.04-0.05,24.07-0.04,36.11-0.02
		C560.47,124.11,561.07,124.66,562.25,132.02z"/>
	<path class="st0" d="M462.24,12.4c-0.01-5.53,2.44-7.36,7.34-7.28c13.35,0.2,26.71,0.27,40.05-0.02c5.09-0.11,7.67,1.66,8.03,7.31
		C499.27,12.4,480.91,12.4,462.24,12.4z"/>
	<path class="st0" d="M441.08,132.38c-6.18,0-12.38,0.16-18.55-0.1c-1.71-0.07-4.85-1.47-4.81-2.09c0.19-2.9,1.12-5.91,4.98-6.02
		c2.93-0.09,5.86-0.07,8.79-0.07c10.25-0.01,20.51-0.11,30.76,0.12c1.58,0.04,4.5,1.76,4.43,2.47c-0.26,2.57-0.69,5.69-4.61,5.67
		c-7-0.05-14-0.01-20.99-0.01C441.08,132.35,441.08,132.36,441.08,132.38z"/>
	<path class="st0" d="M319.75,80.66c-2.08,0.3-3.32,0.63-4.56,0.63c-13.04,0.04-26.08-0.02-39.12,0.05
		c-3.02,0.01-4.97-0.95-5.62-4.13c-0.59-2.89,0.26-4.35,3.38-4.34c13.36,0.03,26.73,0.08,40.09-0.03
		C319.28,72.8,318.26,77.01,319.75,80.66z"/>
	<path class="st0" d="M507.06,107.27c4.04,0,7.73,0,11.43,0c10.26,0,20.51-0.11,30.77,0.12c1.82,0.04,4.26,0.98,5.28,2.35
		c2.77,3.75,1.49,5.93-3.2,5.95c-12.21,0.06-24.42,0.04-36.63,0.02C508.28,115.69,507.86,115.25,507.06,107.27z"/>
	<path class="st0" d="M275.59,89.96c4.88,0,9.41,0,13.94,0c8.82,0,17.63-0.01,26.45,0c6.79,0.01,7.15,0.37,7.66,8.14
		c-1.84,0.15-3.7,0.43-5.56,0.44c-11.59,0.04-23.18,0.03-34.78,0.02C276.52,98.55,276.17,98.18,275.59,89.96z"/>
	<path class="st0" d="M472.2,107.95c-0.82,7.16-1.4,7.74-7.98,7.76c-11.74,0.03-23.48,0.11-35.22-0.1
		c-1.79-0.03-5.17-1.85-5.08-2.28c0.6-2.88,1.11-6.22,5.5-6.08c5.7,0.18,11.41,0.02,17.12,0.02c7.66,0,15.33,0,22.99,0.06
		C470.43,107.34,471.33,107.74,472.2,107.95z"/>
	<path class="st0" d="M359.95,80.28c0.18-6.76,0.76-7.4,7.06-7.41c12.22-0.03,24.44-0.09,36.65,0.1c1.51,0.02,3.01,1.45,4.51,2.23
		c-1.35,1.99-2.67,5.67-4.06,5.7c-14.47,0.33-28.95,0.08-43.43-0.04C360.44,80.86,360.19,80.49,359.95,80.28z"/>
	<path class="st0" d="M549.49,98.51c-14.71,0-29.02,0.05-43.33-0.03c-3.78-0.02-4.48-3.19-4.25-5.87c0.09-1,2.92-2.49,4.53-2.52
		c11.73-0.22,23.47-0.13,35.2-0.11C547.81,89.98,548.78,90.97,549.49,98.51z"/>
	<path class="st0" d="M355.23,98.2c0.07-7.14,1.02-8.22,6.98-8.24c11.76-0.02,23.51-0.02,35.27,0c1.6,0,3.19,0.16,4.74,0.24
		c0.41,6.81-0.91,8.33-7.06,8.34c-11.59,0.02-23.19,0.02-34.78-0.01C358.65,98.54,356.92,98.32,355.23,98.2z"/>
	<path class="st0" d="M430.08,98.33c1.01-7.86,1.54-8.36,8.66-8.37c11.25-0.01,22.5-0.02,33.75,0.01c1.72,0,3.44,0.21,5.17,0.32
		c-0.59,7.8-1.05,8.26-8.04,8.27c-11.41,0.01-22.82,0.01-34.24-0.01C433.62,98.55,431.86,98.41,430.08,98.33z"/>
	<path class="st0" d="M280.13,107.77c2.18-0.22,3.58-0.48,4.97-0.48c12.21-0.03,24.43-0.13,36.64,0.1c1.9,0.04,4.53,1.18,5.5,2.67
		c2.17,3.35,0.75,5.57-3.26,5.6c-12.38,0.09-24.76-0.08-37.13,0.07C281.65,115.8,281.61,111.95,280.13,107.77z"/>
	<path class="st0" d="M274.09,5.2c7.18,0,14.36,0.03,21.53-0.02c2.81-0.02,4.67,0.86,5.2,3.92c0.41,2.4-0.02,3.87-2.77,3.87
		c-15.01-0.01-30.02,0.12-45.02-0.24c-1.45-0.04-2.82-3.15-4.23-4.83c1.41-0.9,2.79-2.53,4.24-2.58
		C260.05,5.05,267.07,5.2,274.09,5.2z"/>
	<path class="st0" d="M543.24,80.63c-1.65,0.23-3.3,0.65-4.95,0.66c-11.87,0.06-23.75,0.07-35.62-0.01
		c-1.54-0.01-3.72-0.13-4.48-1.09c-1.2-1.53-1.45-3.81-2.11-5.77c1.58-0.52,3.15-1.47,4.73-1.49c11.22-0.13,22.45,0.16,33.67-0.18
		C539.66,72.6,542.57,74.26,543.24,80.63z"/>
	<path class="st0" d="M378.18,12.18c-0.35-6.07,0.26-6.93,5.66-6.95c13.86-0.06,27.72-0.1,41.58,0.08c1.51,0.02,3.01,1.52,4.51,2.33
		c-1.34,1.77-2.65,5.04-4.01,5.07c-15.64,0.29-31.28,0.08-46.93-0.02C378.72,12.68,378.45,12.35,378.18,12.18z"/>
	<path class="st0" d="M581.3,183.02c-1.88,0.17-3.3,0.41-4.72,0.42c-13.69,0.03-27.38,0.12-41.06-0.1c-1.9-0.03-4.48-1.21-5.5-2.7
		c-1.82-2.66-1.15-4.99,2.85-4.98c14.18,0.03,28.36,0.03,42.53-0.01C580,175.62,581.08,178.45,581.3,183.02z"/>
	<path class="st0" d="M396.61,107.4c0.23,6.67-1.06,8.27-6.46,8.29c-11.73,0.05-23.47,0.1-35.2-0.11c-1.43-0.03-2.83-1.68-4.25-2.58
		c1.2-1.87,2.36-5.32,3.61-5.36C368.41,107.26,382.53,107.4,396.61,107.4z"/>
	<path class="st0" d="M436.44,81.33c1.28-7.95,1.8-8.45,8.13-8.46c11.24-0.02,22.49-0.1,33.72,0.1c1.63,0.03,4.6,1.47,4.61,2.28
		c0.03,2.87-0.59,6.04-4.71,6.05c-6.35,0.01-12.71,0.02-19.06,0.03C451.71,81.33,444.29,81.33,436.44,81.33z"/>
	<path class="st0" d="M308.55,124.13c6.03,0,12.07-0.2,18.08,0.12c1.78,0.09,4.23,1.18,5.08,2.59c2.11,3.53,0.8,5.47-3.33,5.5
		c-12.06,0.08-24.12,0.16-36.18-0.12c-1.8-0.04-4.2-1.57-5.19-3.13c-1.75-2.76-1-5,2.95-4.97
		C296.16,124.17,302.36,124.13,308.55,124.13z"/>
	<path class="st0" d="M398.16,182.26c0.41-4.29,2.09-6.8,7.25-6.71c13.22,0.24,26.46,0.01,39.68,0.16c1.59,0.02,3.17,1.27,4.75,1.95
		c-1.41,1.9-2.78,5.43-4.23,5.46c-15.49,0.32-31,0.09-46.5-0.03C398.88,183.09,398.64,182.69,398.16,182.26z"/>
	<path class="st0" d="M625.14,56.34c6.69,0,13.38,0.02,20.07-0.02c2.64-0.01,4.87,0.11,4.9,3.74c0.02,3.38-1.72,4.1-4.61,4.09
		c-13.7-0.06-27.41-0.04-41.11-0.02c-2.61,0-4.39-0.63-4.46-3.78c-0.08-3.44,1.83-4.06,4.66-4.03
		C611.44,56.39,618.29,56.34,625.14,56.34z"/>
	<path class="st0" d="M625.11,13c-6.85,0-13.7,0-20.56,0.01c-2.47,0-4.55-0.25-4.62-3.56c-0.07-3.27,1.54-4.26,4.51-4.25
		c13.87,0.05,27.73,0.06,41.6,0.01c2.92-0.01,4.08,1.25,4.05,4.13c-0.02,2.79-1.36,3.71-3.94,3.69C639.14,12.96,632.12,13,625.11,13
		z"/>
	<path class="st0" d="M752.2,64.13c-6.85,0-13.69-0.03-20.54,0.02c-2.77,0.02-4.72-0.47-4.73-3.96c-0.01-3.56,2.04-3.88,4.77-3.87
		c13.53,0.04,27.06,0.04,40.59,0.01c2.73-0.01,4.72,0.34,4.7,3.91c-0.01,3.57-2.04,3.92-4.74,3.91
		C765.57,64.11,758.89,64.13,752.2,64.13z"/>
	<path class="st0" d="M751.93,5.22c6.85,0,13.69,0.04,20.54-0.02c2.9-0.03,4.56,0.78,4.52,4.15c-0.04,3.3-1.89,3.67-4.43,3.67
		C758.87,13,745.17,13,731.48,13.03c-2.51,0-4.48-0.29-4.53-3.59c-0.06-3.26,1.44-4.29,4.45-4.26
		C738.25,5.26,745.09,5.21,751.93,5.22C751.93,5.2,751.93,5.21,751.93,5.22z"/>
	<path class="st0" d="M346.29,132.27c0.62-7.72,1-8.14,7.16-8.16c11.23-0.03,22.46-0.1,33.68,0.11c1.41,0.03,2.79,1.69,4.18,2.6
		c-1.28,1.82-2.52,5.17-3.86,5.21C373.86,132.42,360.25,132.27,346.29,132.27z"/>
	<path class="st0" d="M289.29,56.34c6.69,0,13.39,0.1,20.08-0.03c3.63-0.07,5.07,1.81,5.12,5.05c0.05,3.85-3.04,2.72-5.02,2.74
		c-12.57,0.1-25.14,0.05-37.71,0.05c-0.82,0-1.97,0.31-2.39-0.11c-1.67-1.67-3.1-3.57-4.62-5.38c1.49-0.77,2.96-2.15,4.47-2.21
		C275.9,56.2,282.6,56.33,289.29,56.34z"/>
	<path class="st0" d="M413.69,57.38c-0.34,5.17-2.71,6.99-7.66,6.87c-12.56-0.31-25.14-0.02-37.7-0.25
		c-1.33-0.02-2.62-1.89-3.93-2.89c1.27-1.57,2.52-4.47,3.82-4.49c14.68-0.27,29.37-0.11,44.05-0.02
		C412.68,56.59,413.08,57.03,413.69,57.38z"/>
</g>
</svg>
