<?xml version="1.0" encoding="utf-8"?>
<!-- Generator: Adobe Illustrator 26.0.2, SVG Export Plug-In . SVG Version: 6.00 Build 0)  -->
<svg version="1.1" id="Capa_1" xmlns="http://www.w3.org/2000/svg" xmlns:xlink="http://www.w3.org/1999/xlink" x="0px" y="0px"
	 viewBox="0 0 479.43 286.42" style="enable-background:new 0 0 479.43 286.42;" xml:space="preserve">
<style type="text/css">
	.st0{fill:#2D4995;}
	.st1{fill:#FFFFFF;}
	.st2{font-family:'HelveticaNeueLTStd-Hv';}
	.st3{font-size:59.4943px;}
</style>
<path class="st0" d="M479.36,58.28c-0.02-11.44-2.76-22.25-9.19-31.88C458.31,8.65,441.21,0.15,420.26,0.11
	C300.23-0.07,180.19-0.02,60.16,0.15c-6.48,0.01-13.14,1.08-19.39,2.81C17.39,9.45,0.15,31.03,0.09,56.94
	c-0.15,57.73-0.08,115.46-0.01,173.19c0.01,8.04,1.5,15.91,5.13,23.15c10.79,21.47,28.08,33.03,52.35,33.08
	c60.68,0.12,121.37,0.04,182.05,0.04c61.02,0,122.03-0.02,183.05,0.02c7.09,0,13.93-1.11,20.48-3.77
	c22.59-9.19,36.19-29.3,36.23-54.15C479.47,171.75,479.44,115.01,479.36,58.28z M475.16,182.65c0,3.1-0.04,3.12-3.84,3.12
	c-69.43,0-138.85,0-208.28,0c-7.83,0-15.65,0-23.48,0c-76.75,0-153.5,0-230.26,0c-0.75,0-1.51-0.08-2.25,0.01
	c-2.37,0.29-3.17-0.86-2.94-3.05c0.04-0.41,0-0.83,0-1.25c0-40.85-0.01-81.69,0-122.54C4.13,34.46,17.44,15.28,40.58,7.29
	c5.24-1.81,11.07-2.69,16.63-2.7c121.62-0.15,243.24-0.15,364.87-0.09c23.62,0.01,43.35,14.51,50.69,37.18
	c1.41,4.36,2.27,9.11,2.29,13.68C475.23,97.79,475.16,140.22,475.16,182.65z"/>
<path class="st0" d="M101.93,85.61c-2.75,0-5.5,0.11-8.23-0.07c-0.73-0.05-1.91-0.89-2.02-1.51c-1.58-9.24-7.68-12.31-15.74-13.32
	c-4.66-0.58-9.31-0.32-13.67,1.81c-4.91,2.41-7.45,7.12-5.96,12.36c0.55,1.92,2.29,4.14,4.07,4.95c4.5,2.05,9.29,3.52,14.05,4.96
	c8.01,2.44,16.29,4.13,24.08,7.13c10.77,4.15,17.13,12.25,17.35,24.14c0.22,12.35-5.32,21.54-16.31,27.31
	c-9.47,4.97-19.71,5.67-30.13,5.07c-10.32-0.6-19.78-3.58-27.64-10.58c-6.51-5.8-9.25-13.4-10.05-21.87
	c-0.15-1.58,0.44-2.28,2.09-2.27c5.49,0.05,10.99,0.06,16.48-0.01c1.65-0.02,2.18,0.83,2.36,2.24c1.1,8.5,6.23,13.44,14.27,15.31
	c7.17,1.67,14.39,1.56,21.26-1.54c4.17-1.88,6.72-5.09,6.94-9.84c0.22-4.74-2.19-8.2-6.21-9.96c-5.14-2.25-10.6-3.8-15.96-5.52
	c-7.58-2.44-15.37-4.34-22.74-7.29c-6.58-2.63-11.83-7.36-13.69-14.58c-3.68-14.32,1.07-25.59,12.89-32.48
	c9.46-5.51,19.76-6.91,30.58-5.53c7.89,1,15.32,3.05,21.71,7.98c6.74,5.2,10,12.23,10.62,20.62c0.14,1.87-0.56,2.56-2.4,2.51
	c-2.66-0.08-5.33-0.02-7.99-0.02C101.93,85.62,101.93,85.62,101.93,85.61z"/>
<path class="st0" d="M147.4,120.32c0,10.98-0.05,21.95,0.04,32.93c0.02,2.34-0.63,3.27-3.09,3.18c-4.49-0.17-8.99-0.1-13.48-0.02
	c-1.82,0.03-2.49-0.62-2.49-2.47c0.04-22.45,0.04-44.91,0-67.36c0-1.89,0.78-2.45,2.55-2.42c4.49,0.07,8.99,0.12,13.48-0.02
	c2.29-0.07,3.05,0.72,3.03,3C147.35,98.2,147.4,109.26,147.4,120.32z"/>
<path class="st0" d="M137.73,72.31c-2.41,0-4.82-0.04-7.23,0.01c-1.46,0.03-2.12-0.55-2.1-2.05c0.04-3.82,0.05-7.64,0-11.45
	c-0.02-1.66,0.79-2.16,2.3-2.15c4.82,0.04,9.63,0.05,14.45,0c1.58-0.01,2.27,0.63,2.25,2.22c-0.04,3.73-0.04,7.47,0,11.2
	c0.02,1.56-0.58,2.28-2.2,2.23C142.71,72.25,140.22,72.31,137.73,72.31z"/>
<path class="st0" d="M366.65,134.73c8.74,0,17.48,0,26.22,0c1.46,0,2.81-0.14,2.83,2.08c0.02,2.25-1.24,2.32-2.89,2.32
	c-17.48-0.02-34.96-0.01-52.45-0.02c-1.27,0-2.77,0.36-2.95-1.72c-0.17-1.92,0.51-2.69,2.51-2.67c7.33,0.07,14.65,0.03,21.98,0.03
	C363.49,134.72,365.07,134.72,366.65,134.73z"/>
<path class="st0" d="M366.4,152.07c8.81,0,17.62,0,26.42,0c1.44,0,2.83-0.14,2.88,2.06c0.05,2.32-1.39,2.25-2.95,2.25
	c-17.53,0-35.07-0.01-52.6,0c-1.53,0-2.79-0.05-2.76-2.18c0.03-2.12,1.32-2.14,2.83-2.14C348.95,152.07,357.67,152.07,366.4,152.07z
	"/>
<path class="st0" d="M431.08,134.73c8.73,0,17.45,0.01,26.18-0.01c1.53,0,2.84,0.04,2.8,2.15c-0.03,1.55-0.55,2.27-2.19,2.25
	c-4.32-0.06-8.64-0.01-12.96-0.01c-13.3,0-26.59,0.01-39.89-0.01c-1.27,0-2.75,0.36-2.88-1.76c-0.12-1.92,0.52-2.66,2.52-2.64
	C413.46,134.77,422.27,134.73,431.08,134.73z"/>
<path class="st0" d="M431.1,152.07c8.82,0,17.63,0.04,26.45-0.03c2.04-0.02,2.8,0.87,2.41,2.7c-0.13,0.61-0.87,1.19-1.47,1.57
	c-0.36,0.23-0.97,0.07-1.47,0.07c-17.3,0-34.6,0.01-51.9-0.02c-1.12,0-2.67,0.55-2.93-1.39c-0.26-1.88,0.2-2.95,2.46-2.93
	C413.47,152.12,422.28,152.07,431.1,152.07z"/>
<path class="st0" d="M366.59,147.52c-8.82,0-17.63-0.01-26.45,0.01c-1.54,0-3.05-0.09-2.64-2.18c0.13-0.67,0.98-1.25,1.61-1.73
	c0.27-0.21,0.81-0.07,1.22-0.07c17.47,0,34.93-0.02,52.4,0.05c0.96,0,2.43,0.53,2.77,1.24c0.83,1.76-0.11,2.69-2.45,2.69
	C384.22,147.53,375.41,147.52,366.59,147.52z"/>
<path class="st0" d="M431.01,147.52c-8.74,0-17.47,0-26.21,0c-1.39,0-2.73,0.07-2.66-1.98c0.04-1.34,0.55-2.01,1.92-2
	c2.08,0.01,4.16-0.01,6.24-0.01c15.56,0,31.12-0.02,46.67,0.05c0.99,0,2.47,0.42,2.87,1.13c0.92,1.62-0.15,2.79-2.37,2.8
	C448.65,147.54,439.83,147.52,431.01,147.52z"/>
<path class="st0" d="M180.28,126.1c16.15,0,32.1,0,48.08,0c-0.31,3.91-0.56,4.15-4.1,4.16c-13.29,0.01-26.58,0.01-39.87,0
	C180.87,130.26,180.71,130.09,180.28,126.1z"/>
<path class="st0" d="M225.59,135.07c-0.58,3.84-0.77,4.03-4.1,4.03c-11.4,0.01-22.8,0.01-34.19,0c-3.57,0-3.59-0.03-4.27-4.03
	C197.19,135.07,211.31,135.07,225.59,135.07z"/>
<path class="st0" d="M281.19,86.72c-6.98,0-13.96,0.05-20.93-0.05c-0.94-0.01-2.66-0.74-2.66-1.14c-0.01-1.72,0.89-2.83,2.96-2.81
	c7.48,0.08,14.95,0.03,22.43,0.03c6.23,0,12.46-0.02,18.69,0.02c0.8,0,1.89,0.01,2.33,0.49c0.6,0.65,0.86,1.75,0.93,2.68
	c0.02,0.21-1.33,0.75-2.06,0.76C295.65,86.74,288.42,86.72,281.19,86.72z"/>
<path class="st0" d="M301.86,78c-13.81,0-27.46,0-41.11,0c0.09-3.51,0.67-4.12,3.86-4.12c11.14-0.01,22.27-0.01,33.41,0
	C301.16,73.89,301.58,74.32,301.86,78z"/>
<path class="st0" d="M298.84,69.32c-11.78,0-23.35,0-34.94,0c0.44-3.99,0.82-4.35,4.53-4.35c8.56,0,17.12,0,25.69,0
	C297.85,64.98,298.05,65.16,298.84,69.32z"/>
<path class="st0" d="M185.68,143.68c1.22-0.06,2.12-0.15,3.01-0.15c10.38-0.01,20.76-0.03,31.14,0.04c1.03,0.01,2.86-0.74,2.81,1.31
	c-0.03,1.59-0.86,2.68-2.86,2.67c-10.3-0.07-20.59-0.08-30.89,0C186.3,147.57,186.02,145.95,185.68,143.68z"/>
<path class="st0" d="M219.84,152.35c-0.17,3.62-0.56,4.02-3.76,4.02c-7.82,0.01-15.65,0-23.47,0c-0.75,0-1.78,0.23-2.18-0.15
	c-0.82-0.79-1.35-1.91-1.82-2.97c-0.05-0.12,1.1-1.12,1.69-1.12c9.49-0.07,18.98-0.04,28.46-0.02
	C219.09,152.1,219.4,152.25,219.84,152.35z"/>
<path class="st0" d="M350.43,64.98c3.49,0,6.99,0.06,10.48-0.02c1.73-0.04,2.08,0.81,2.09,2.3c0.01,1.53-0.43,2.29-2.12,2.28
	c-7.07-0.05-14.15-0.05-21.22-0.01c-1.77,0.01-2.28-0.77-2.27-2.43c0.01-1.69,0.79-2.15,2.3-2.14
	C343.27,65.01,346.85,64.98,350.43,64.98z"/>
<path class="st0" d="M221.74,69.38c0.58-4.36,0.6-4.39,4.42-4.4c6.31-0.01,12.62-0.01,18.94,0.01c0.96,0,1.91,0.14,2.84,0.21
	c0.01,3.76-0.48,4.32-3.66,4.33c-6.64,0.01-13.29,0.01-19.93,0C223.54,69.51,222.73,69.43,221.74,69.38z"/>
<path class="st0" d="M187.48,69.52c-1.85,0-3.49,0-5.13,0c-5.66,0-11.32,0.01-16.98,0c-3.68-0.01-3.78-0.11-4.3-4.2
	c1.02-0.11,2.04-0.32,3.06-0.33c6.41-0.03,12.82-0.02,19.22-0.01C186.95,64.98,187.04,65.08,187.48,69.52z"/>
<path class="st0" d="M414.89,64.98c3.4,0,6.8,0.04,10.2-0.01c1.68-0.03,2.6,0.4,2.58,2.37c-0.02,1.85-0.89,2.21-2.46,2.2
	c-6.88-0.04-13.77-0.04-20.65,0c-1.61,0.01-2.42-0.42-2.45-2.24c-0.03-1.96,0.87-2.39,2.58-2.35
	C408.09,65.03,411.49,64.97,414.89,64.98z"/>
<path class="st0" d="M331.48,156.11c-1.03,0.1-1.82,0.25-2.62,0.26c-7.05,0.02-14.09,0.06-21.14-0.05c-0.98-0.02-2.32-0.55-2.86-1.3
	c-1.28-1.79-0.59-2.92,1.64-2.93c7.13-0.04,14.26,0.06,21.39-0.06C330.61,151.98,330.9,153.78,331.48,156.11z"/>
<path class="st0" d="M231.33,156.21c0.47-3.72,0.88-4.14,3.96-4.14c6.64-0.01,13.28-0.01,19.92,0c0.81,0,1.62,0.09,2.4,0.13
	c0.4,3.23-0.35,4.16-3.26,4.17c-6.89,0.02-13.78,0.01-20.67,0C232.96,156.37,232.23,156.27,231.33,156.21z"/>
<path class="st0" d="M350.23,130.25c-3.49,0-6.98-0.05-10.47,0.02c-1.69,0.03-2.39-0.56-2.37-2.31c0.02-1.71,0.85-2.11,2.34-2.1
	c7.06,0.03,14.13,0.03,21.19-0.01c1.49-0.01,2.09,0.56,2.07,2.06c-0.01,1.44-0.27,2.39-2.04,2.36
	C357.38,130.2,353.81,130.25,350.23,130.25z"/>
<path class="st0" d="M311.79,139.1c-3.49,0-6.98,0.12-10.46-0.08c-0.91-0.05-2.07-0.9-2.56-1.72c-0.95-1.58-0.46-2.61,1.66-2.59
	c7.06,0.05,14.12-0.04,21.17,0.09c0.9,0.02,2.13,0.82,2.61,1.62c1.12,1.91,0.59,2.63-1.7,2.66
	C318.93,139.13,315.36,139.1,311.79,139.1z"/>
<path class="st0" d="M350.44,99.89c3.49,0,6.99,0.05,10.48-0.03c1.74-0.04,2.08,0.83,2.07,2.32c-0.01,1.45-0.5,2.11-2.03,2.1
	c-7.15-0.04-14.3-0.04-21.45-0.01c-1.46,0.01-2.11-0.51-2.11-2.03c0-1.48,0.36-2.38,2.07-2.36
	C343.13,99.93,346.79,99.89,350.44,99.89z"/>
<path class="st0" d="M350.2,78.2c-3.49,0-6.98-0.03-10.48,0.01c-1.52,0.02-2.3-0.48-2.32-2.14c-0.02-1.62,0.61-2.21,2.21-2.2
	c7.07,0.04,14.13,0.04,21.2,0c1.4-0.01,2.18,0.36,2.18,1.95c-0.01,1.64-0.54,2.44-2.31,2.4C357.18,78.14,353.69,78.2,350.2,78.2z"/>
<path class="st0" d="M350.15,95.47c-3.49,0-6.98-0.03-10.47,0.01c-1.51,0.02-2.31-0.46-2.29-2.15c0.02-1.63,0.75-2.18,2.29-2.18
	c7.06,0.03,14.12,0.04,21.19,0c1.7-0.01,2.09,0.84,2.11,2.32c0.02,1.54-0.68,2.03-2.12,2.01C357.3,95.44,353.73,95.47,350.15,95.47z
	"/>
<path class="st0" d="M350.28,121.49c-3.49,0-6.98-0.02-10.47,0.01c-1.4,0.01-2.45-0.19-2.41-1.99c0.03-1.59,0.7-2.24,2.26-2.23
	c7.06,0.03,14.12,0.03,21.19-0.01c1.68-0.01,2.11,0.85,2.13,2.34c0.02,1.64-0.88,1.91-2.23,1.9
	C357.26,121.47,353.77,121.49,350.28,121.49z"/>
<path class="st0" d="M350.31,108.7c3.49,0,6.99,0.03,10.48-0.01c1.39-0.02,2.2,0.39,2.19,1.97c-0.01,1.48-0.41,2.36-2.11,2.35
	c-7.07-0.04-14.14-0.03-21.21-0.02c-1.57,0-2.22-0.71-2.25-2.28c-0.03-1.78,1-2.03,2.42-2.02
	C343.32,108.72,346.81,108.7,350.31,108.7z"/>
<path class="st0" d="M163.51,73.88c1.62,0,2.76,0,3.9,0c6.47,0,12.94,0.05,19.41-0.03c1.63-0.02,2.42,0.6,2.81,2.12
	c0.38,1.46,0.07,2.23-1.58,2.23c-7.13-0.02-14.27-0.02-21.4,0C163.96,78.2,164.2,76.09,163.51,73.88z"/>
<path class="st0" d="M263.78,134.89c0.07,3.48-0.56,4.2-3.53,4.21c-6.73,0.02-13.46,0.01-20.19,0c-0.73,0-1.46-0.1-2.18-0.15
	c0.22-3.66,0.75-4.21,4.09-4.22c6.4-0.01,12.79-0.01,19.19,0C262.05,134.74,262.93,134.84,263.78,134.89z"/>
<path class="st0" d="M414.69,104.25c-3.48,0-6.97-0.05-10.45,0.02c-1.68,0.03-2.13-0.76-2.11-2.28c0.02-1.44,0.52-2.13,2.03-2.12
	c7.13,0.03,14.27,0.04,21.4-0.01c1.69-0.01,2.07,0.76,2.09,2.28c0.01,1.68-0.73,2.15-2.26,2.13
	C421.82,104.22,418.26,104.25,414.69,104.25z"/>
<path class="st0" d="M414.88,113c-3.41,0-6.82-0.03-10.24,0.01c-1.58,0.02-2.5-0.39-2.52-2.22c-0.02-1.95,1.08-2.11,2.57-2.1
	c6.82,0.03,13.65,0.03,20.47,0c1.55-0.01,2.5,0.27,2.49,2.18c-0.01,1.91-1.02,2.17-2.54,2.15C421.7,112.97,418.29,113,414.88,113z"
	/>
<path class="st0" d="M415.04,78.2c-3.49,0-6.98-0.04-10.47,0.02c-1.61,0.03-2.46-0.4-2.46-2.22c0-1.91,1.04-2.13,2.55-2.13
	c6.89,0.03,13.79,0.03,20.68,0c1.49-0.01,2.3,0.34,2.3,2.07c0,1.78-0.75,2.31-2.4,2.27C421.85,78.15,418.44,78.2,415.04,78.2z"/>
<path class="st0" d="M414.62,95.47c-3.4,0-6.8-0.03-10.2,0.02c-1.51,0.02-2.3-0.44-2.29-2.12c0.01-1.6,0.63-2.22,2.22-2.21
	c6.97,0.04,13.93,0.04,20.9,0c1.63-0.01,2.42,0.47,2.41,2.27c-0.01,1.74-0.88,2.08-2.33,2.06
	C421.75,95.45,418.18,95.47,414.62,95.47z"/>
<path class="st0" d="M414.96,121.49c-3.49,0-6.97-0.02-10.46,0.01c-1.44,0.01-2.39-0.3-2.37-2.05c0.01-1.63,0.74-2.19,2.28-2.18
	c6.97,0.03,13.94,0.03,20.91,0c1.48-0.01,2.31,0.38,2.33,2.09c0.02,1.68-0.7,2.17-2.24,2.15
	C421.93,121.45,418.44,121.49,414.96,121.49z"/>
<path class="st0" d="M321.56,130.26c-2.1,0-3.98,0-5.87,0c-5.64,0-11.28,0.07-16.92-0.07c-0.92-0.02-2.22-0.7-2.66-1.46
	c-1.31-2.25-0.87-2.84,1.79-2.85c6.47-0.02,12.94-0.01,19.41,0C320.63,125.88,320.81,126.06,321.56,130.26z"/>
<path class="st0" d="M245.32,74.3c-0.61,3.8-0.72,3.9-4.2,3.91c-6.39,0.01-12.79,0.05-19.18-0.06c-0.81-0.01-2.27-0.78-2.3-1.26
	c-0.07-1.36,0.26-2.96,2.21-2.97c7.55-0.02,15.11,0.01,22.66,0.04C244.73,73.96,244.96,74.14,245.32,74.3z"/>
<path class="st0" d="M414.94,130.25c-3.49,0-6.99-0.05-10.48,0.02c-1.72,0.04-2.35-0.62-2.34-2.34c0.01-1.73,0.88-2.08,2.35-2.07
	c6.9,0.03,13.81,0.03,20.71,0c1.56-0.01,2.47,0.35,2.48,2.22c0,1.88-0.93,2.21-2.49,2.19C421.76,130.22,418.35,130.25,414.94,130.25
	z"/>
<path class="st0" d="M266.87,126.01c-0.4,3.84-0.79,4.24-3.89,4.24c-6.4,0.01-12.81,0.01-19.21,0c-0.81,0-1.62-0.1-2.42-0.15
	c-0.02-3.48,0.64-4.22,3.73-4.23c6.4-0.01,12.81-0.01,19.21,0C265.09,125.88,265.9,125.96,266.87,126.01z"/>
<path class="st0" d="M318.21,121.31c-0.89,0.06-1.77,0.17-2.64,0.17c-6.3,0.01-12.6,0.01-18.9,0.01c-3.29,0-3.35-0.07-3.93-3.96
	c0.95-0.09,1.89-0.25,2.83-0.25c6.13-0.02,12.27-0.02,18.4-0.01C317.31,117.28,317.61,117.56,318.21,121.31z"/>
<path class="st0" d="M267.25,60.35c-0.01-2.82,1.25-3.75,3.74-3.71c6.8,0.1,13.61,0.14,20.41-0.01c2.59-0.06,3.91,0.84,4.09,3.72
	C286.12,60.35,276.76,60.35,267.25,60.35z"/>
<path class="st0" d="M256.47,121.49c-3.15,0-6.31,0.08-9.45-0.05c-0.87-0.04-2.47-0.75-2.45-1.07c0.1-1.48,0.57-3.01,2.54-3.07
	c1.49-0.04,2.99-0.03,4.48-0.03c5.22,0,10.45-0.06,15.67,0.06c0.8,0.02,2.3,0.9,2.26,1.26c-0.13,1.31-0.35,2.9-2.35,2.89
	c-3.57-0.02-7.13-0.01-10.7-0.01C256.47,121.48,256.47,121.49,256.47,121.49z"/>
<path class="st0" d="M194.64,95.14c-1.06,0.15-1.69,0.32-2.32,0.32c-6.64,0.02-13.29-0.01-19.93,0.02c-1.54,0.01-2.54-0.49-2.86-2.1
	c-0.3-1.47,0.13-2.22,1.72-2.21c6.81,0.02,13.62,0.04,20.43-0.01C194.4,91.14,193.88,93.28,194.64,95.14z"/>
<path class="st0" d="M290.09,108.7c2.06,0,3.94,0,5.82,0c5.23,0,10.45-0.06,15.68,0.06c0.93,0.02,2.17,0.5,2.69,1.2
	c1.41,1.91,0.76,3.02-1.63,3.03c-6.22,0.03-12.44,0.02-18.67,0.01C290.71,112.99,290.49,112.76,290.09,108.7z"/>
<path class="st0" d="M172.14,99.88c2.48,0,4.79,0,7.1,0c4.49,0,8.99,0,13.48,0c3.46,0,3.64,0.19,3.91,4.15
	c-0.94,0.08-1.89,0.22-2.84,0.22c-5.91,0.02-11.81,0.02-17.72,0.01C172.61,104.25,172.43,104.07,172.14,99.88z"/>
<path class="st0" d="M272.32,109.05c-0.42,3.65-0.72,3.95-4.07,3.95c-5.98,0.01-11.97,0.06-17.95-0.05
	c-0.91-0.02-2.63-0.94-2.59-1.16c0.31-1.47,0.56-3.17,2.8-3.1c2.9,0.09,5.82,0.01,8.72,0.01c3.9,0,7.81,0,11.71,0.03
	C271.42,108.73,271.88,108.94,272.32,109.05z"/>
<path class="st0" d="M215.12,94.95c0.09-3.44,0.39-3.77,3.6-3.78c6.23-0.01,12.45-0.04,18.68,0.05c0.77,0.01,1.53,0.74,2.3,1.14
	c-0.69,1.01-1.36,2.89-2.07,2.91c-7.37,0.17-14.75,0.04-22.13-0.02C215.37,95.24,215.25,95.05,215.12,94.95z"/>
<path class="st0" d="M311.71,104.23c-7.49,0-14.79,0.03-22.08-0.02c-1.93-0.01-2.28-1.63-2.16-2.99c0.04-0.51,1.49-1.27,2.31-1.29
	c5.98-0.11,11.96-0.07,17.94-0.06C310.85,99.89,311.35,100.4,311.71,104.23z"/>
<path class="st0" d="M212.72,104.08c0.03-3.64,0.52-4.19,3.56-4.2c5.99-0.01,11.98-0.01,17.97,0c0.81,0,1.63,0.08,2.42,0.12
	c0.21,3.47-0.46,4.24-3.6,4.25c-5.91,0.01-11.82,0.01-17.72,0C214.46,104.25,213.58,104.14,212.72,104.08z"/>
<path class="st0" d="M250.86,104.14c0.52-4.01,0.79-4.26,4.41-4.26c5.73-0.01,11.46-0.01,17.2,0.01c0.88,0,1.75,0.1,2.63,0.16
	c-0.3,3.98-0.54,4.21-4.1,4.21c-5.82,0.01-11.63,0.01-17.45,0C252.66,104.25,251.77,104.18,250.86,104.14z"/>
<path class="st0" d="M174.45,108.96c1.11-0.11,1.82-0.24,2.53-0.25c6.22-0.02,12.45-0.07,18.67,0.05c0.97,0.02,2.31,0.6,2.8,1.36
	c1.11,1.71,0.38,2.84-1.66,2.86c-6.31,0.04-12.62-0.04-18.92,0.04C175.22,113.05,175.2,111.09,174.45,108.96z"/>
<path class="st0" d="M171.37,56.68c3.66,0,7.32,0.02,10.97-0.01c1.43-0.01,2.38,0.44,2.65,2c0.21,1.22-0.01,1.97-1.41,1.97
	c-7.65,0-15.3,0.06-22.94-0.12c-0.74-0.02-1.44-1.6-2.15-2.46c0.72-0.46,1.42-1.29,2.16-1.32
	C164.22,56.61,167.79,56.69,171.37,56.68z"/>
<path class="st0" d="M308.52,95.12c-0.84,0.12-1.68,0.33-2.52,0.34c-6.05,0.03-12.1,0.04-18.15-0.01c-0.79-0.01-1.9-0.07-2.28-0.56
	c-0.61-0.78-0.74-1.94-1.07-2.94c0.8-0.26,1.61-0.75,2.41-0.76c5.72-0.07,11.44,0.08,17.16-0.09
	C306.7,91.03,308.18,91.88,308.52,95.12z"/>
<path class="st0" d="M224.41,60.24c-0.18-3.09,0.13-3.53,2.88-3.54c7.06-0.03,14.13-0.05,21.19,0.04c0.77,0.01,1.53,0.77,2.3,1.19
	c-0.68,0.9-1.35,2.57-2.05,2.58c-7.97,0.15-15.94,0.04-23.91-0.01C224.69,60.5,224.55,60.33,224.41,60.24z"/>
<path class="st0" d="M327.92,147.3c-0.96,0.09-1.68,0.21-2.41,0.21c-6.98,0.01-13.95,0.06-20.93-0.05c-0.97-0.02-2.28-0.62-2.8-1.38
	c-0.93-1.36-0.59-2.54,1.45-2.54c7.22,0.01,14.45,0.02,21.67-0.01C327.26,143.53,327.81,144.97,327.92,147.3z"/>
<path class="st0" d="M233.8,108.77c0.12,3.4-0.54,4.21-3.29,4.23c-5.98,0.02-11.96,0.05-17.94-0.06c-0.73-0.01-1.44-0.86-2.17-1.31
	c0.61-0.95,1.2-2.71,1.84-2.73C219.43,108.7,226.63,108.77,233.8,108.77z"/>
<path class="st0" d="M254.1,95.48c0.65-4.05,0.92-4.31,4.15-4.31c5.73-0.01,11.46-0.05,17.19,0.05c0.83,0.01,2.35,0.75,2.35,1.16
	c0.02,1.46-0.3,3.08-2.4,3.08c-3.24,0-6.48,0.01-9.71,0.01C261.88,95.48,258.1,95.48,254.1,95.48z"/>
<path class="st0" d="M188.93,117.29c3.07,0,6.15-0.1,9.22,0.06c0.91,0.05,2.16,0.6,2.59,1.32c1.07,1.8,0.41,2.79-1.7,2.8
	c-6.15,0.04-12.29,0.08-18.44-0.06c-0.92-0.02-2.14-0.8-2.64-1.6c-0.89-1.4-0.51-2.55,1.5-2.53
	C182.62,117.31,185.78,117.29,188.93,117.29z"/>
<path class="st0" d="M234.59,146.91c0.21-2.19,1.06-3.47,3.69-3.42c6.74,0.12,13.48,0,20.22,0.08c0.81,0.01,1.61,0.65,2.42,0.99
	c-0.72,0.97-1.42,2.77-2.15,2.78c-7.89,0.16-15.8,0.04-23.69-0.01C234.96,147.34,234.84,147.13,234.59,146.91z"/>
<path class="st0" d="M350.26,82.75c3.41,0,6.82,0.01,10.23-0.01c1.34-0.01,2.48,0.06,2.5,1.91c0.01,1.72-0.87,2.09-2.35,2.08
	c-6.98-0.03-13.97-0.02-20.95-0.01c-1.33,0-2.23-0.32-2.27-1.93c-0.04-1.75,0.93-2.07,2.37-2.05
	C343.28,82.77,346.77,82.75,350.26,82.75z"/>
<path class="st0" d="M350.24,60.66c-3.49,0-6.98,0-10.47,0c-1.26,0-2.32-0.13-2.35-1.81c-0.04-1.67,0.79-2.17,2.3-2.17
	c7.07,0.02,14.13,0.03,21.2,0c1.49-0.01,2.08,0.64,2.07,2.11c-0.01,1.42-0.69,1.89-2.01,1.88
	C357.39,60.64,353.82,60.66,350.24,60.66z"/>
<path class="st0" d="M415.01,86.72c-3.49,0-6.98-0.02-10.47,0.01c-1.41,0.01-2.41-0.24-2.41-2.02c0-1.81,1.04-1.98,2.43-1.97
	c6.89,0.02,13.79,0.02,20.68,0c1.39,0,2.4,0.17,2.4,1.99c-0.01,1.82-1.04,2-2.42,1.99C421.82,86.71,418.41,86.72,415.01,86.72z"/>
<path class="st0" d="M414.87,56.69c3.49,0,6.98,0.02,10.47-0.01c1.48-0.01,2.32,0.4,2.3,2.12c-0.02,1.68-0.97,1.87-2.26,1.87
	c-6.98-0.01-13.96-0.01-20.93,0c-1.28,0-2.28-0.15-2.31-1.83c-0.03-1.66,0.73-2.19,2.27-2.17
	C407.89,56.71,411.38,56.69,414.87,56.69C414.87,56.69,414.87,56.69,414.87,56.69z"/>
<path class="st0" d="M208.16,121.44c0.31-3.93,0.51-4.15,3.65-4.16c5.72-0.02,11.44-0.05,17.16,0.06c0.72,0.01,1.42,0.86,2.13,1.32
	c-0.65,0.93-1.29,2.64-1.96,2.65C222.21,121.51,215.27,121.44,208.16,121.44z"/>
<path class="st0" d="M179.12,82.75c3.41,0,6.82,0.05,10.23-0.02c1.85-0.04,2.59,0.92,2.61,2.57c0.03,1.96-1.55,1.39-2.56,1.39
	c-6.4,0.05-12.81,0.03-19.21,0.03c-0.42,0-1,0.16-1.22-0.06c-0.85-0.85-1.58-1.82-2.36-2.74c0.76-0.39,1.51-1.1,2.28-1.13
	C172.29,82.67,175.71,82.74,179.12,82.75z"/>
<path class="st0" d="M242.51,83.28c-0.18,2.64-1.38,3.56-3.9,3.5c-6.4-0.16-12.81-0.01-19.21-0.13c-0.68-0.01-1.34-0.96-2-1.47
	c0.65-0.8,1.28-2.28,1.95-2.29c7.48-0.14,14.97-0.05,22.45-0.01C241.99,82.87,242.2,83.1,242.51,83.28z"/>
<text transform="matrix(0.9075 0 0 1 104.1692 258.0758)" class="st1 st2 st3">Industries</text>
</svg>
